PathFileType	4	(X/Y/Z)	24_coords_data.trc
DataRate	CameraRate	NumFrames	NumMarkers	Units	OrigDataRate	OrigDataStartFrame	OrigNumFrames
30.0	30.0	7	21	m	30.0	21	80
Frame#	Time	THUMB_TIP	THUMB_IP	THUMB_MCP	THUMB_CMC	INDEX_TIP	INDEX_DIP	INDEX_PIP	INDEX_MCP	MIDDLE_TIP	MIDDLE_DIP	MIDDLE_PIP	MIDDLE_MCP	RING_TIP	RING_DIP	RING_PIP	RING_MCP	PINKY_TIP	PINKY_DIP	PINKY_PIP	PINKY_MCP	WRIST
X1	Y1	Z1	X2	Y2	Z2	X3	Y3	Z3	X4	Y4	Z4	X5	Y5	Z5	X6	Y6	Z6	X7	Y7	Z7	X8	Y8	Z8	X9	Y9	Z9	X10	Y10	Z10	X11	Y11	Z11	X12	Y12	Z12	X13	Y13	Z13	X14	Y14	Z14	X15	Y15	Z15	X16	Y16	Z16	X17	Y17	Z17	X18	Y18	Z18	X19	Y19	Z19	X20	Y20	Z20	X21	Y21	Z21
20	0.6666666666666666	0.009561140060424805	-0.004528560161590576	0.8699249877929688	-0.006453199863433838	-0.006926720142364502	0.8946110229492188	-0.022938400268554687	-0.009203280448913574	0.9229500122070312	-0.03988199996948242	0.008741530418395996	0.9462329711914063	0.010488599777221679	0.01166069984436035	0.8264819946289063	-0.008948240280151367	0.006201690196990967	0.838822021484375	-0.02940679931640625	0.001135540008544921	0.8522239990234375	-0.05482899856567383	-0.003670739889144897	0.8871400146484375	0.008846039772033692	0.03829650115966797	0.8263209838867187	-0.012701199531555176	0.032314498901367186	0.8354000244140625	-0.03858589935302734	0.026618799209594726	0.84877001953125	-0.0632052001953125	0.019204099655151366	0.887031005859375	0.004653530120849609	0.05490010070800781	0.835343994140625	-0.0161466007232666	0.0513302001953125	0.8445280151367187	-0.04069010162353515	0.04665430068969727	0.8580859985351562	-0.06288349914550781	0.038495800018310544	0.892905029296875	-0.009293950080871582	0.065529296875	0.8493140258789063	-0.02470210075378418	0.06401069641113281	0.862760986328125	-0.03880459976196289	0.06111299896240235	0.876823974609375	-0.05672790145874024	0.055270198822021485	0.901156982421875	-0.07153399658203125	0.02049530029296875	0.9719929809570312
21	0.7	0.0096770601272583	-0.005199830055236817	0.8698610229492187	-0.006416100025177002	-0.007442430019378662	0.8946229858398438	-0.02280590057373047	-0.00963302993774414	0.9230150146484375	-0.03986259841918945	0.008260680198669433	0.9462570190429688	0.010320099830627441	0.011127699851989746	0.8264080200195313	-0.008953889846801759	0.005623630046844482	0.8387839965820313	-0.029056699752807617	0.000593069970607757	0.8517410278320312	-0.05482749938964844	-0.004073790073394775	0.8871270141601563	0.00879601001739502	0.037762401580810546	0.8263670043945313	-0.012475099563598633	0.03187849998474121	0.8352410278320312	-0.038610801696777344	0.026119499206542968	0.8484929809570313	-0.06305099868774414	0.01859000015258789	0.8868289794921875	0.004690639972686768	0.0543755989074707	0.8347890014648438	-0.01627000045776367	0.050831100463867185	0.8444110107421875	-0.04082320022583008	0.046191299438476566	0.8579199829101563	-0.06284560012817383	0.03803110122680664	0.8929810180664063	-0.00949116039276123	0.0650687026977539	0.8492550048828125	-0.024745500564575196	0.06356480026245118	0.8626480102539062	-0.03905699920654297	0.060658401489257815	0.8764609985351562	-0.056667598724365234	0.05497109985351562	0.9010960083007813	-0.07165730285644531	0.020326799392700195	0.9723920288085938
22	0.7333333333333333	0.009767129898071289	-0.005603390216827393	0.8698140258789062	-0.006367640018463135	-0.007866290092468262	0.8944240112304688	-0.022777700424194337	-0.009860790252685547	0.9230889892578125	-0.03994029998779297	0.007992300033569336	0.9464110107421875	0.010401399612426757	0.010867799758911133	0.8264609985351562	-0.00896854019165039	0.005306580066680908	0.8389299926757813	-0.029238100051879882	0.000362726002931594	0.8520859985351562	-0.05472819900512695	-0.004375100135803223	0.8871740112304688	0.008890509605407715	0.03744540023803711	0.82631201171875	-0.012487199783325196	0.03154059982299805	0.8351530151367188	-0.03856320190429687	0.025919500350952147	0.8486530151367188	-0.06293780136108398	0.018444700241088866	0.8868660278320313	0.0047338600158691405	0.054067100524902344	0.8348300170898437	-0.016021799087524415	0.050534900665283204	0.8444509887695313	-0.04060250091552734	0.04597760009765625	0.85806298828125	-0.06280899810791016	0.037916500091552736	0.8929829711914062	-0.009151909828186035	0.06471530151367187	0.8492680053710937	-0.02454280090332031	0.06323540115356445	0.862781005859375	-0.03873350143432617	0.060355701446533204	0.8766829833984375	-0.05648699951171875	0.054778099060058594	0.901322998046875	-0.07147149658203125	0.01985890007019043	0.9715469970703124
23	0.7666666666666667	0.009765669822692872	-0.005849009990692139	0.8699190063476563	-0.006379849910736084	-0.008010109901428223	0.8947470092773437	-0.022697500228881836	-0.0100314998626709	0.9230399780273437	-0.0397239990234375	0.00784223985671997	0.946280029296875	0.010563599586486816	0.01064430046081543	0.826614013671875	-0.008732839584350586	0.005200489997863769	0.838906005859375	-0.02911079978942871	0.000230993002653121	0.8520560302734375	-0.05464619827270508	-0.004405829906463623	0.8871290283203125	0.009059439659118653	0.037327701568603516	0.826594970703125	-0.012441900253295899	0.03146769905090332	0.8354550170898437	-0.03834930038452149	0.025761600494384765	0.848822021484375	-0.06296429824829101	0.01841119956970215	0.8870029907226562	0.0049867801666259775	0.05386650085449219	0.8348590087890625	-0.01586299991607666	0.05035599899291992	0.8445239868164063	-0.04054520034790039	0.04577349853515625	0.8580490112304687	-0.06273989868164062	0.03775130081176758	0.8930809936523437	-0.009004019737243652	0.06456479644775391	0.849375	-0.02445319938659668	0.06303799819946289	0.8630269775390625	-0.03889450073242187	0.06023139953613281	0.8766719970703125	-0.05641049957275391	0.054568599700927735	0.9013070068359375	-0.07119100189208985	0.019781400680541992	0.9721010131835938
24	0.8	0.009884539604187012	-0.005743529796600342	0.8700869750976562	-0.00619035005569458	-0.00792917013168335	0.89477197265625	-0.022545799255371094	-0.010027000427246094	0.922989013671875	-0.03957509994506836	0.007971389770507813	0.946281005859375	0.010829500198364258	0.010855799674987792	0.8268049926757812	-0.00853318977355957	0.005288730144500733	0.8389329833984375	-0.028924400329589844	0.000326633006334304	0.852114013671875	-0.05451499938964844	-0.004394320011138916	0.8871799926757813	0.009192669868469238	0.03741379928588867	0.8263740234375	-0.012099300384521484	0.031554500579833986	0.8354359741210937	-0.03822629928588867	0.0257908992767334	0.8488200073242187	-0.0628380012512207	0.01850040054321289	0.8870609741210937	0.004985290050506592	0.0540630989074707	0.835375	-0.015704099655151366	0.05050579833984375	0.8445770263671875	-0.04026369857788086	0.04583639907836914	0.8579730224609375	-0.06267160034179688	0.03778990173339844	0.8930029907226562	-0.00890863037109375	0.06468930053710938	0.849458984375	-0.02434600067138672	0.06315760040283203	0.8630260009765625	-0.03866699981689453	0.060287799835205075	0.876676025390625	-0.056273799896240234	0.05460580062866211	0.9012689819335937	-0.07125460052490235	0.019837900161743163	0.971718994140625
25	0.8333333333333334	0.01013700008392334	-0.0055560097694396975	0.8699719848632812	-0.006063089847564697	-0.007848400115966797	0.8947230224609375	-0.022589399337768556	-0.009888050079345703	0.9231719970703125	-0.039597900390625	0.008006839752197266	0.9463920288085937	0.01086460018157959	0.011060400009155274	0.8265250244140625	-0.008455639839172363	0.005562019824981689	0.8388820190429688	-0.028914499282836913	0.0005590140223503111	0.8520070190429687	-0.05438880157470703	-0.004187640190124512	0.887302978515625	0.00933372974395752	0.03767829895019531	0.826510009765625	-0.011914899826049805	0.031815799713134765	0.8354749755859375	-0.03800320053100586	0.025983800888061525	0.848781982421875	-0.06267219924926758	0.018564899444580077	0.8870999755859375	0.005128389835357666	0.054272201538085936	0.835427001953125	-0.015579099655151368	0.05076190185546875	0.844655029296875	-0.04016780090332031	0.046106300354003905	0.8581539916992188	-0.062486000061035156	0.03797299957275391	0.89314697265625	-0.008692049980163574	0.06485679626464844	0.84952001953125	-0.02406410026550293	0.06336520004272461	0.8628980102539062	-0.03860309982299805	0.06050189971923828	0.8766179809570313	-0.05621390151977539	0.05473369979858399	0.9013170166015625	-0.07119439697265625	0.020048999786376955	0.9721060180664063
26	0.8666666666666667	0.010203300476074218	-0.005481969833374023	0.86993798828125	-0.006017119884490967	-0.007687990188598633	0.894719970703125	-0.02254960060119629	-0.009799489974975586	0.9230869750976562	-0.039749500274658206	0.008158060073852539	0.9465050048828125	0.011115300178527831	0.011370100021362305	0.8269390258789062	-0.008333539962768555	0.005799689769744873	0.8389530029296876	-0.02858559989929199	0.0007714880108833311	0.8518519897460938	-0.054242000579833985	-0.004102419853210449	0.887135986328125	0.009463950157165528	0.037923301696777344	0.8267830200195313	-0.012017900466918946	0.03202389907836914	0.8356890258789063	-0.03796369934082031	0.026230899810791016	0.8485960083007813	-0.06252310180664063	0.018647100448608397	0.886947021484375	0.005275609970092773	0.054513401031494144	0.835177978515625	-0.015596199989318847	0.05093610000610352	0.8445859985351563	-0.04009970092773438	0.04635699844360352	0.8581890258789062	-0.062389900207519534	0.03803960037231445	0.8929719848632812	-0.0087183198928833	0.06512960052490234	0.8495380249023438	-0.024214599609375	0.06354309844970703	0.8629210205078125	-0.03840240097045899	0.060693199157714844	0.8768820190429687	-0.05623860168457031	0.05484859848022461	0.9011699829101563	-0.07119979858398437	0.020193099975585938	0.9714869995117188
